<?xml version="1.0" encoding="UTF-8"?>
<svg width="73px" height="24px" viewBox="0 0 73 24" version="1.1" xmlns="http://www.w3.org/2000/svg" xmlns:xlink="http://www.w3.org/1999/xlink">
    <title>CSV</title>
    <g id="Cards" stroke="none" stroke-width="1" fill="none" fill-rule="evenodd">
        <g id="Group" fill-rule="nonzero">
            <g>
                <g id="CSV">
                    <path d="M24.2186747,20.709434 L13.2811158,20.709434 C12.8499566,20.709434 12.5,20.3566164 12.5,19.9217839 L12.5,4.16872949 C12.5,3.73389691 12.8499566,3.38113208 13.2811158,3.38113208 L24.2186747,3.38113208 C24.6500434,3.38113208 25,3.73389691 25,4.16872949 L25,19.9217839 C25,20.3566164 24.6500958,20.709434 24.2186747,20.709434 L24.2186747,20.709434 Z" id="Path" fill="#F1F5F7"></path>
                    <path d="M16.3195469,8.03018868 L13.2637864,8.03018868 C12.8421927,8.03018868 12.5,7.65148606 12.5,7.18482086 C12.5,6.71826873 12.8421927,6.33962264 13.2637864,6.33962264 L16.3195469,6.33962264 C16.7411406,6.33962264 17.0833333,6.71826873 17.0833333,7.18482086 C17.0833846,7.65148606 16.7411918,8.03018868 16.3195469,8.03018868 L16.3195469,8.03018868 Z" id="Path" fill="#46B34C"></path>
                    <path d="M16.3195469,10.9886792 L13.2637864,10.9886792 C12.8421927,10.9886792 12.5,10.6100644 12.5,10.1431418 C12.5,9.67689769 12.8421927,9.29811321 13.2637864,9.29811321 L16.3195469,9.29811321 C16.7411406,9.29811321 17.0833333,9.67689769 17.0833333,10.1431418 C17.0833846,10.6100078 16.7411918,10.9886792 16.3195469,10.9886792 L16.3195469,10.9886792 Z" id="Path" fill="#46B34C"></path>
                    <path d="M16.3195469,14.3698113 L13.2637864,14.3698113 C12.8421927,14.3698113 12.5,13.9910268 12.5,13.5246696 C12.5,13.0579732 12.8421927,12.6792453 13.2637864,12.6792453 L16.3195469,12.6792453 C16.7411406,12.6792453 17.0833333,13.0579732 17.0833333,13.5246696 C17.0833846,13.9910268 16.7411918,14.3698113 16.3195469,14.3698113 L16.3195469,14.3698113 Z" id="Path" fill="#46B34C"></path>
                    <path d="M16.3195469,17.3283019 L13.2637864,17.3283019 C12.8421927,17.3283019 12.5,16.9496811 12.5,16.4830471 C12.5,16.0164131 12.8421927,15.6377358 13.2637864,15.6377358 L16.3195469,15.6377358 C16.7411406,15.6377358 17.0833333,16.0164131 17.0833333,16.4830471 C17.0833333,16.9496811 16.7411918,17.3283019 16.3195469,17.3283019 L16.3195469,17.3283019 Z" id="Path" fill="#46B34C"></path>
                    <path d="M21.9198201,8.03018868 L19.8066539,8.03018868 C19.2235601,8.03018868 18.75,7.65148606 18.75,7.18482086 C18.75,6.71826873 19.2235601,6.33962264 19.8066539,6.33962264 L21.9198201,6.33962264 C22.5028431,6.33962264 22.9761906,6.71826873 22.9761906,7.18482086 C22.9761906,7.65148606 22.5028431,8.03018868 21.9198201,8.03018868 L21.9198201,8.03018868 Z" id="Path" fill="#46B34C"></path>
                    <path d="M21.9198201,10.9886792 L19.8066539,10.9886792 C19.2235601,10.9886792 18.75,10.6100644 18.75,10.1431418 C18.75,9.67689769 19.2235601,9.29811321 19.8066539,9.29811321 L21.9198201,9.29811321 C22.5028431,9.29811321 22.9761906,9.67689769 22.9761906,10.1431418 C22.9761906,10.6100078 22.5028431,10.9886792 21.9198201,10.9886792 L21.9198201,10.9886792 Z" id="Path" fill="#46B34C"></path>
                    <path d="M21.9198201,14.3698113 L19.8066539,14.3698113 C19.2235601,14.3698113 18.75,13.9910268 18.75,13.5246696 C18.75,13.0579732 19.2235601,12.6792453 19.8066539,12.6792453 L21.9198201,12.6792453 C22.5028431,12.6792453 22.9761906,13.0579732 22.9761906,13.5246696 C22.9761906,13.9910268 22.5028431,14.3698113 21.9198201,14.3698113 L21.9198201,14.3698113 Z" id="Path" fill="#46B34C"></path>
                    <path d="M21.9198201,17.3283019 L19.8066539,17.3283019 C19.2235601,17.3283019 18.75,16.9496811 18.75,16.4830471 C18.75,16.0164131 19.2235601,15.6377358 19.8066539,15.6377358 L21.9198201,15.6377358 C22.5028431,15.6377358 22.9761906,16.0164131 22.9761906,16.4830471 C22.9761906,16.9496811 22.5028431,17.3283019 21.9198201,17.3283019 L21.9198201,17.3283019 Z" id="Path" fill="#46B34C"></path>
                    <path d="M13.8820392,0.182493014 C13.7023857,0.032607893 13.4615633,-0.0321787766 13.2349908,0.0153560681 L0.642245726,2.38181052 C0.269216488,2.45155643 0,2.77649218 0,3.15666542 L0,20.5122123 C0,20.8908555 0.269216488,21.2172685 0.642245726,21.2871199 L13.2349908,23.6536271 C13.2821208,23.6629653 13.3309397,23.6679245 13.3798114,23.6679245 C13.5623677,23.6679245 13.7401741,23.6046678 13.8820392,23.4861737 C14.0631706,23.3365523 14.1666667,23.1124896 14.1666667,22.878825 L14.1666667,0.790158209 C14.1666667,0.554963606 14.0631178,0.332430892 13.8820392,0.182493014 L13.8820392,0.182493014 Z" id="Path" fill="#3CA241"></path>
                    <path d="M3.82254464,13.5391967 C3.53023876,13.5047152 3.26783173,13.4081471 3.03531569,13.2515977 C2.80279965,13.0978561 2.62011121,12.9017819 2.4872449,12.6634114 C2.35437859,12.4279054 2.28794643,12.1697511 2.28794643,11.8867925 C2.28794643,11.6038338 2.35437859,11.351931 2.4872449,11.1289283 C2.62011121,10.903061 2.80279965,10.7241785 3.03531569,10.5923175 C3.26783173,10.457648 3.53023876,10.3857741 3.82254464,10.3787997 C4.07764796,10.372713 4.30750323,10.4174993 4.51211735,10.5145152 C4.71673147,10.6133381 4.88679779,10.7597417 5.02232143,10.9540649 L4.52008929,11.4635218 C4.3393911,11.2163488 4.12016498,11.0931649 3.86240434,11.0910797 C3.71093674,11.0898544 3.57607946,11.1245397 3.45782844,11.1945607 C3.33957743,11.2638139 3.24790105,11.3617147 3.18279656,11.4882649 C3.11769206,11.6140456 3.08514031,11.7591975 3.08514031,11.9243019 C3.08514031,12.0894064 3.11769206,12.2376215 3.18279656,12.3695288 C3.24790105,12.5022056 3.33957743,12.6087335 3.45782844,12.6891145 C3.57607946,12.7702634 3.71093674,12.8176392 3.86240434,12.8306676 C4.12016498,12.8528387 4.3393911,12.7502848 4.52008929,12.5201162 L5.02232143,13.076835 C4.88679779,13.2584049 4.71673147,13.3888047 4.51211735,13.4683726 C4.30750323,13.5461335 4.07764796,13.5692895 3.82254464,13.5391967 Z M6.55576668,13.6672988 C6.33624079,13.6405857 6.12317473,13.5811655 5.91656213,13.4899259 C5.70994953,13.3998725 5.54207931,13.2935586 5.41294643,13.1710181 L5.66475428,12.512827 C5.78613918,12.6195058 5.92689191,12.7098691 6.08701668,12.783772 C6.24714144,12.8585067 6.40468119,12.9031669 6.55964064,12.9171303 C6.8540636,12.9436606 7.00127287,12.8625946 7.00127287,12.6739299 C7.00127287,12.5746327 6.95930532,12.4979969 6.87536895,12.4442697 C6.79143258,12.3908753 6.65649075,12.3320349 6.4705394,12.2681072 C6.26650946,12.2006831 6.09605662,12.1321863 5.95917577,12.0624507 C5.82229492,11.9934448 5.70478576,11.8893341 5.60664478,11.7504334 C5.50850379,11.6126863 5.45943403,11.4311292 5.45943403,11.2048912 C5.45943403,11.0065456 5.50462986,10.8276772 5.59502287,10.6673261 C5.68541589,10.5057024 5.82035772,10.3758162 5.99985242,10.2775154 C6.17934712,10.177742 6.39951537,10.1237068 6.66036378,10.1165121 C6.83856715,10.111597 7.01418523,10.1324182 7.18722329,10.1795264 C7.36026134,10.2273678 7.51263585,10.3008616 7.64435139,10.4002703 L7.4080394,11.1459237 C7.14977365,10.9622015 6.89925963,10.8712867 6.65648982,10.8703171 C6.50411302,10.8697085 6.39306041,10.8974987 6.32332866,10.9534385 C6.25359691,11.0090446 6.21873155,11.0815627 6.21873155,11.171245 C6.21873155,11.2609273 6.26005345,11.3291636 6.34269849,11.3761932 C6.42534354,11.4235391 6.5583484,11.4743034 6.74171709,11.5288143 C6.94832969,11.5914616 7.11942819,11.6579432 7.25501771,11.7280829 C7.39060723,11.7989452 7.50811639,11.9085893 7.6075487,12.0573421 C7.70698102,12.2072501 7.75669643,12.407215 7.75669643,12.6563763 C7.75669643,12.8714059 7.7115006,13.0618068 7.62110759,13.2266396 C7.53071457,13.3902112 7.39512708,13.512952 7.21434106,13.5946778 C7.03355503,13.6748961 6.81403243,13.698726 6.55576668,13.6672988 Z M10.8816964,9.91378611 L9.70096595,13.8204947 L8.93349114,13.7347372 L7.75669643,10.0138208 L8.59895084,9.9868593 L9.34674681,12.4500711 L10.1102858,9.93847981 L10.8816964,9.91378611 Z" fill="#FFFFFF"></path>
                </g>
                <path d="M40.542,19.288 C43.008,19.288 44.952,18.388 46.194,16.768 L43.512,14.374 C42.774,15.31 41.892,15.85 40.758,15.85 C38.994,15.85 37.806,14.626 37.806,12.7 C37.806,10.774 38.994,9.55 40.758,9.55 C41.892,9.55 42.774,10.09 43.512,11.026 L46.194,8.632 C44.952,7.012 43.008,6.112 40.542,6.112 C36.492,6.112 33.522,8.83 33.522,12.7 C33.522,16.57 36.492,19.288 40.542,19.288 Z M51.936,19.288 C55.842,19.288 57.804,17.344 57.804,15.04 C57.804,10.396 50.838,11.656 50.838,10.144 C50.838,9.712 51.234,9.352 52.476,9.352 C53.574,9.352 54.744,9.658 55.986,10.288 L57.264,7.21 C55.95,6.472 54.204,6.112 52.512,6.112 C48.606,6.112 46.644,8.02 46.644,10.36 C46.644,15.058 53.61,13.78 53.61,15.364 C53.61,15.796 53.178,16.048 51.972,16.048 C50.586,16.048 49.002,15.598 47.814,14.896 L46.446,17.992 C47.706,18.766 49.83,19.288 51.936,19.288 Z M67.2,19 L72.528,6.4 L68.352,6.4 L65.274,13.762 L62.268,6.4 L57.696,6.4 L63.024,19 L67.2,19 Z" id="CSV" fill="#3CA241"></path>
            </g>
        </g>
    </g>
</svg>